<mxfile host="app.diagrams.net" modified="2021-06-14T15:19:12.311Z" agent="5.0 (X11; Linux x86_64) AppleWebKit/537.36 (KHTML, like Gecko) Chrome/90.0.4430.212 Safari/537.36" etag="3n5zjeOLEkpRP2Na8ZTI" version="14.7.7" type="github" pages="2">
  <diagram id="CMwjFdoR1JaBl3O9BVz9" name="Page-1">
    <mxGraphModel dx="2351" dy="659" grid="1" gridSize="10" guides="1" tooltips="1" connect="1" arrows="1" fold="1" page="1" pageScale="1" pageWidth="850" pageHeight="1100" math="0" shadow="0">
      <root>
        <mxCell id="0" />
        <mxCell id="1" parent="0" />
        <mxCell id="XYlybEsTkhaIwOSgg5BH-30" value="" style="rounded=0;whiteSpace=wrap;html=1;strokeColor=#FF3333;" vertex="1" parent="1">
          <mxGeometry x="-250" y="60" width="990" height="620" as="geometry" />
        </mxCell>
        <mxCell id="XYlybEsTkhaIwOSgg5BH-7" value="&lt;font style=&quot;font-size: 24px&quot;&gt;Ubuntu Server 20.04 LTS&lt;/font&gt;" style="text;html=1;strokeColor=none;fillColor=none;align=left;verticalAlign=middle;whiteSpace=wrap;rounded=0;" vertex="1" parent="1">
          <mxGeometry x="75" y="80" width="340" height="20" as="geometry" />
        </mxCell>
        <mxCell id="XYlybEsTkhaIwOSgg5BH-10" value="" style="shape=image;verticalLabelPosition=bottom;labelBackgroundColor=#ffffff;verticalAlign=top;aspect=fixed;imageAspect=0;image=data:image/png,iVBORw0KGgoAAAANSUhEUgAAA0MAAACuCAYAAAD08tYuAAAABGdBTUEAALGPC/xhBQAAACBjSFJNAAB6JgAAgIQAAPoAAACA6AAAdTAAAOpgAAA6mAAAF3CculE8AAAABmJLR0QA/wD/AP+gvaeTAAAACXBIWXMAAABgAAAAYADwa0LPAAAAB3RJTUUH5QYPAAc4Oj3rPgAAABBjYU52AAAK9gAAA4QAAAZ0AAABAV/jNfwAAEOXSURBVHja7d13dFRF/8fx97Y0UiEJJCShJ5BA6B0EFKQIojQRpCgqdh87FgQUG4KPv0dFRUVADQrSmxQp0nsNPZSQBJIAIYW0bb8/gtRQFBR0P69zOIfsnTsz9+7u3PnemTtrOFXodCIiIiIiIuJijDe7AiIiIiIiIjeDgiEREREREXFJCoZERERERMQlKRgSERERERGXpGBIRERERERckoIhERERERFxSQqGRERERETEJSkYEhERERERl6RgSEREREREXJKCIRERERERcUkKhkRERERExCUpGBIREREREZekYEhERERERFySgiEREREREXFJCoZERERERMQlKRgSERERERGXpGBIRERERERckoIhERERERFxSQqGRERERETEJSkYEhERERERl6RgSEREREREXJKCIRERERERcUkKhkRERERExCUpGLqIMXUP7V9eQp3xGTe7KiIiIiIi8hcy35Bc7NnMWJBGRkx5+keYrpjUeOIQXUcdIMVRhjc/jKat/cYciCEng29/Pcik7adJzrKBtxfValXg3Q7BVLwxRykiIiIiIv8iN2RkyHD6BGOXJPLNYduVE9qz+eSHQ+yyGW7oQRgyk3jww818vOI0qSW9qRrjS5Ajlx0r4rl/Qhonb2xxIiIiIiLyL3BDxkyMWXmcvGoqO7vm7WBcogVLQCFk37iDMOba8IityudtQ2nsXfSa4fQxHv3vTrZvP8L3p4J5xu8vOX8iIiIiIvIPdV3BkMOUwXsf7WJGRgG5ALNWUX0WeNu86fJafV4OPJe2MHkfLywrxHhHdZ5L3sqXxQRDxlPpDJmewPy9eWSZ3ShdOYSX6xXwwbhjuPduybyaxQ/x2EPKM7rrha85SwTRNczJxoxCDmYC/laWxa3h2U0Q078JP8QUTef7fdrewbJV+empUKoUW8Bp5i08xDf7skg6XkhBHhDgRbVGkXx6ux8lnQB25v+wlCG7y/L2y8HsnLmXn+LzcNSqx5oePmA/zfRZe/hoczaZhUZKlC1F7/b+7B+/m2WVarOpX8C5c3U0hSELElm2J488mxFzaEm6tq/KoCjL3/zxEBERERH597quYMjgdKNuZBCFGelM2VKAqVII/cqbMNm9qO9zXsKCEwz/PoVjpcvzZTsfDn5dTGYFJ3jjy+3MPG7BI7o0HUrCycQUXh5nxQ6E/8G6OY257D9hwGz0oGopwGmhxd2VaLx7N+un7mNBtaq0MeXx05REEq1+9H0glErOyxzn6XS+25yDNdyP+uFmAgxWdu8+zs652xhQqhHTYs8FKfn56Qz6XyomN1+io0sQUMkMhgLmx23ije02jKGBtKhgwXoqkwlfpnIaA27nlWU6eojenxxgn7sftzUOJcrtNMu2pDF57CZs/2nIGyF/4adBRERERMSFXF8w5ChBu/ZVaL09m+lbCvCNrsDzzd0vSmRl7czdzD/hQ8+XK1LfWMDBYvJK3rSfGScMBLSow7yOJfA8s++uWRvo+Vv+H65bTvxhJqYayK5Rlu7egBMoEcrwjke5c/JRhs0sS+2qB/hknxOPDlWvOI3O6VueuFfLX3hYrQ5x9/CDHNiSBbGlzr5udBqp2qkBP8SeOw+mI3v4YLsNS7kq/PxU2NmgK2v/Du4Zk86ps5kWMG3+IQ5TihderEmfEkUvP9XYkx5vH+CnFZm80V3z/UREREREboS/fGnt7J17eGmdDfPd1S+YNncBQwErd5ymhNWXLs3PBEIATgvBpf94vGY4fYwXp6RRYC7Ja3cHn5nGVqRkw6o8V95A9pptdJpykpzS4Yy6rcQfLsPu40aw00mezU7eea+7OdxoWO7CgHDvwZNkYKR0s5ALRp/8Ajw4P6XDkcH8PQ4Ky5Wmo7uDfJudfJud0z4+lPcFZ0beBWWJiIiIiMif95cuOv17UJJdPpKfm3sWjc4Uw2HIZ/8JMLh7Ut7nj5VxCXsmYybsZmOGJ9UHRtPb/6I6OUrQt0sYkz86QvJJDxo9WYF6pqvkabCyY90eXl9ygoTjDowYMZcyYzFc2zJ1x5MKMdndKF/yygWZsvM5bgNbwi6av7br4kpQWFY/CyUiIiIicqP8hcGQndXz9rA6y4RnuVzGTNsLgBMHiWmQ78xmwtS9LA0ryzv1b0yJTkMesyZu57MDJsJ71GJcZPELDmRm5HMSyDfls3NnLlS88shQ9radDJh8ElvFcF7qWJIKZgeZJ1MZPTWNa/lp1j86yc9UvhJfdfK/5HU3b69zo2YiIiIiInJd/rpgyOAgLceGAyOntycz58KNQC5bV+aytbIvg+v7EeEHztQ8DmUDf+axGEMBv03exLCtTgI712FSw8uEDQUneHtmGicDg2jpeYINy3YzolHdK0zhs7JkYwYmqy+9769MvzN1czgLmTkllYRrqFpQSTcKTYUcOmmH8MuPDtl9PAg0g6XQSFiEL6HOa8hcRERERET+lBsz78pclE1h1nk/uuq0cHf/O9gxotWF/z5swptVnPgZSzNqVCt2PFoGL4cnTSt4ctqSxU9Lss89F2OwkpRkw35+WQYrO7Yf5pOtp89LV8CaaZt4fq2DoA61mNWsxGVGUOxsmbebZWmetOhWnf/eG0pJQxaTfkoh4aIZb3aD47wi7TjO+xvAmpZL2jVOk6sR6UsgDk4sSWbHeWc8LS2fnPPfDGMALSoa4cgR3j5gv6a8RURERETkz7khI0OWYG/Kk8Hh1Tvpk+dDYCFUb1OVAUHXnkeF2yvTasN2Fq/aRPPUIFqXguTE42w7dmFQYMhM5vXvDpJuPY5zaF2e8YPkVdt4clU+dm9fIk4c4ZWfL8zbERjCW60C8D6SwKurCrHVjGF4JQNuVGBIg1QeW5vAi1uDmBZrweHjSaDTyZGDh3h8ah597gqjTnVf8vblMG7sTgrquZOTnMHCbdmcvsZjs1WsyGPRJ3hrZwJ9P8igaaQ7tvSTrNtbQAGcW1rb6c497UP5/mAyaz9bQ7NaATQOMGPOymf/0WxSo2L57a7rfahKRERERETgBo0MOQPL8e69/gSZctmxLpW1SdY/nolbECMei6ZrtDtuh1OZuzWTrPKVGXW3DxaM/P5Uj8Pbh9jSBgrD/KhzJi5ITy2kALCdzmLVulQWX/Rv/fpsjptymDAlhQynP4/9vsKc00Lj9lVo7GUlccpuZhcAJUJ4vLUPvgVZbNyaQYINQptU54MmPvimp/L93BSWZnrz4FOx3Ffy2uaxGZye9OhTm9eb+OGdc4rf1qQTbwjmxf6hRb+fdN6jTW5hkXz3TBXa1jBh25fOgmXJzN95mny/IPrX8fqLPgYiIiIiIq7HcKrQeUs/mXLwl9X0WOSgwRNN+aziza7NjWU6GE+Tz9Ow3NaIxR21NIKIiIiIyN/pll6r2enIYOzOPNzMAbQtf7Nrc4MZCli85iR5dg9qxioQEhERERH5u/2lvzP0RxhPHOL+L9PJiShBVW8z2ArYu/skBzMtRHStxN23dNh2ZQ5TBu99tIsVvj5UDnDH02AjOfEEO47YMNeM4qVyXPY3mERERERE5K9x60yTs59m8cpDfL7hFAePF2J1mvEJ9qfTnZV5Jsbzn/37OgYrOzYd5Is1J9lwrICCPDAGeFOrcUXebhWgJbRFRERERG6CWycYEhERERER+Rv9gyefiYiIiIiI/HkKhkRERERExCUpGBIREREREZekYEhERERERFySgiEREREREXFJCoZERERERMQlKRgSERERERGXpGBIRERERERckoIhERERERFxSQqGRERERETEJSkYEhERERERl6RgSEREREREXJKCIRERERERcUkKhkRERERExCUpGBIREREREZekYEhERERERFySgiEREREREXFJCoZERERERMQlKRgSERERERGXpGBIRERERERckvmG5FKQwvrps1i+I4n0PHAPCKZKdDvadqlCoPOPZ2czxDPp5e/YZvDEwwJ2hwdBFWtxZ/e2VPW92afsQqnzRzJm150M+k8slvOPIf5r3pscTv9hbQn/E+fgWtjNKSwYNpr09sPoW8f0tx63w5HC7oUZBLeL+VPvsYj8CQUpbJozj6Xbk0jLycfi5k+VuwbSq2lyUZtptBQ16iYPQsq3p3O/OoR6prFyxP/YUeMlHm/jdzar48s/ZvSq+jwxqKm+wyLyr3YiYR5zftnGgeRT5Ds88PWLoOm9fWhR1cyJX0YyclEmpjOdODfPitTv2p32Md7Ydv/AyDHu3PVxN2o4irbbDPFMe3Uy3D+U7jVu9pHJjXDdwZDDnMa6T75kiaMJXZ7sR4UQEwWJ25jz43i+G9uPgQ9WwetP5Guw+9Dg4dfpUpWiDsDUCUz6r42+r91FecufyFBurNw9LJ9/jCbtFQyJ/B3Ob2vvHnAfFUu7Y7bnkFPgDYDRFkDjJ16hcyVwWg8w8+OxTFsUwZOdbnbNRURunrw9P/DVV6lU6N6LFx4Jx8fdSnbaEU4ZzqXxDL+XF5+tg5fBSsa68XwxdjYhH/Sk+s2uvPwtrjsYsu9dwm8Hwrh9WFuifAEnuIXXpcsDh/n0w4Vsyq5C44AU5r8zlsPlq1Ii+yT5OemczInirme6UeNaRnrcQ4nt1YmEVyezZns7ytcxYU3dwIzJv7I/24bd4UvF23vSrXEQhycOYcrJakR455J9Mp1jOSWJqRnI6dQMCk4d5aS1Fp2eu4tqJbLZMXEC83afwmqzYbdE0Lx3H1pVMrN/4hB+zq5BJfcsTmaf4mSqJ9F9HqRzpAdO6wGWj5/G4sM5WEqEEuZbcNlqW40prJs0hqn7j3L8lJlyrR6iX7sQLMDJ3VOZMm07ybng5hVBzN3d6Rzjzen1XzBqcY2zd2tPr/qUUctr88Sgpvjv+JqhC/1pVuowG7d4UXvIPfz+Xbazl6lD4rB3HkzPOiYwWNkdN5y59v48/UCFC0atTu6axZTpm0jMBG+vmnR87R6qZG1gZtyv7EjNx2D0pWLTe+h6ZwU8TBns/TmOWRtOUWgx4xfZiQFNDzM2bh1JRhtHh7zDPP/2PPZsHW6xQTuRf56UWfz3w6M0GfYoDX3BbklkwZCxHL/zVe4LWcJvCeW5/a22xPz+ZbMEEOABtouyMVgqUrO8O1sPplFI4BWLdBpsHF87ibh5+8jCjFeJenR8ti2RuukkIv9wDlMGWxfupETdp7ivYUjRi04LPkEV8SluB6cF39jqBE5cR9JxrhoMOYrpIz3UK/pPDQLIzXPdwVBO6lEK/KoR4QecN0JgDI0ixLSNI4egcQAYbPng24L77wvCaE5h8bujWbuxPTValbimcozGUMJDraxPzcBuyWXR2GXQ9VkGRXqQnzmPcW/9Qnz9PngDDkMsnftF42HKYOWHo9iS2Y7HHgnH6DzAzKFj2bS1HdGNfIhs/xBV7/PEYrCSPHsk38zfS7MnogFw5FWk1cA6BGJl/6T3iVt0gPZRVUic/gPLc9vy9OAGlDJlsH3SpySmXqbOhRBcrxddu3uTsf4LPp28loQO9xCZtZyfvzpEyYGv8EikB9m7J/HV2DhWDH6U2lc5D5aUbEp0HsjLfbwxmlNYcOZ1E5HcVt+bsb/Fk1snFndbPFs2lyLy+QsDIUfOcn7+Zif+vV/gzdreuFnzyPVMYdFHszlZcSAvPxWCKXsDP4+awIygV+gZtoZfl5eizYgnqWUGe64Vk1c0T/bO5cP/s9JuWM+zQ8cicn0cEQ2pF/4/tm88TcNWJTAmrmdPdnXa1HEnd306Bf5VCL2orS2OM3cvWw8VEFA9GDeu/AW1mg6wblYioQ++wTMVTRiseRQqEBKRfwGHMZ0jRw34NQm+th0MVk5s38JxQzD1A4FTV0l+rJg+0s0+aPnDbsgzQw63a0tXonRJLIDT4UOAl5P9Ntu17XgRQ0YCB9JyyFswls/mF93ZLPQ+90E3eXjiBTgdHvh4OSHQEwtgt3jgXYKioVGDlZO7ZjF7ZRK5mKGgELzysf5+YnwCzkz/suDj64kh2YbdfJR9ewsIb1+XUm4AAQSX9ITLBEMmcyjlK3qDEwJKB+BptWEFChPiSfWJoVOUBzjBq0YjqvmNYd9OO7WvsqSF0asoT4sT7BdtC27RjMBla9iUHUuthA0cLN2IJ8tcmKYwIZ5Uj+q0r1OUh9PiiXvGGhJTQqn+eEjR3QzfmjSMmsXUzUdx1IqiQlgcC76YzunmDalRM0QjQCJ/EaMtmDrNw1jxWzyZt9chY+1e7LUfIMYMGVy5vXSYM1j99WDWAwajN2WjutCjdSA4M664n9keQdVYJ9N+nMis2xrSsE4VghUMici/yO/dVOuBnxjx7W4KDTbcQrrz8uOxAOQdmca7r07D4DTj6RdB44EdqWWGq/VSHYHqI/0bXHcwVCIsBM+0FBIzIeS8T4AjZQ9H7cE0KH/l/Z3p8/h41CpOGMDgNFOhyyD6Nrw0ncORwpEUC35NAjBYweQMoemAR2nseWG6/ddYb+fJFUz/8TjRrz9Pi0A49dun/G/z1fezGq6e5qbxrUnz2gtZtPog5gPHKH/7A8V+KZ3X2NFxGmyYDFVo/8IL1N6xkTVrJ/DZzEY88GYLwm/2sYr8S3nUaUSFaevYlBVA5rYS1Hq06NvmXToI06kUUjIhvJgv9vnPDJ3P6TTj6eakMCsXOLeAgj0zD4PJE2+HB8E9XuTpwzvZtmYBY39Zym3/eYQmV55dJyJyyzM6gogo5WTdnjSoE4Kl4n28/nbRAjKfbzyX7uwzQxftb/YyY7LlYy/kbI/ZYLOSX+iJlxeYDBWL7yPpWep/lOteWttcoRW3VTrE0m+WsftEPhisZKVuZOr3mzDUaEMdnyvvbwhqz3Pvv83w997m7feH8FAD90sTFaSwLW4Wu9zrc1sNE47gSoQGJ7Jx7hFyAQxWCk5kFP3/GhnycsjHjMkdnPY0Dh7KuOo+JlsIkeXdObJiI6lWwJ5BWmreHz5nbpViKJ0dz8o9+QCc3rOGXZkRRFUyYXIDMo6ezf/Aoeyr5mc/M5xlcHpStWUtclfHsfxIbRrW8bgkrXtEFKVydrAyPqdon0IrBQGViAhNYdvKo1iBgqytrN1jpEytCLBlk1PgSUhMMzr3aELQiT0k5RYFVBZ7LgWn//Dhi8gVmMwx1K+eyuZJSznk1Yj6Z0Z3TeVbUT80gcXfzic+KYc8q5W8nDSOHs+/Yn4Ghw/l6oZwauOvrErOodBgJSt5OfM25lKmXiU8DXmcPgXeETVp1L0Tsb7JHDpmv3pFRURucUZ7ANFtIzm9cSI/rT3CiULAYMWee20zk+wRtSlXcjcrpu4r2jc/jb2zlnHQM4oaEVy2jyT/LNc9MmS0BdPo0YG4zZnHnM8WMS7bhsUrlKq1+tGnSxW8ipnOdS2cpmzWjRvGNgsYHB4EV2lMj+daFK0kZ42g/YCOTImbwIjBNgxOM/5hbejxeINrzt8R3ozWjScw84N3WO8fSkRZv6vuY3BaiLrnPupPmMrnb83Dyy+CcqWv7ZmnC86Zd3O690/n5ykfMDQXjG6h1OrVgyaB4PS6nZql45g4dA+lAisRVaEUlxvIMdoDqBLjz7qZI5nq9wpdqoI9oi61Pdeyu0FDKhZzZ8JQshnd+6UzecYo3pgI3u4xdHihG236tePnn8fyzmAbBqMvEU37cl9td0hbx5Rxq0jKs2F3eFHx7m7U8wSnR33qVprAjGHD+DW0PQOebaBV5URuBKeFiq2icXy4g6Cefc+O7hqNobR56iG8p81jzpcrOJlvw+LmT/jtfXmo9ZWzLNWsN71OTWXmNx8w82wb3ZcuLf1wOA6wMm4a69LyMVjBv/zddIvSrHcR+Xfwqd6LAf1+4ZdFE/hkRg75Dg+8A4Kp0jiIq02UMRHJvY93ZMbkqXwytGhZ7pJhMXR4tGPRIjNpW4rtI8k/i+FUoVNd2H+RglNLmDDiILGDHqKhJq6KiIiIiFzWjfnRVbnpHKYMtn77JbN2u1Hu7j4KhERERERErkIjQyIiIiIi4pKuewEFERERERGRfyIFQyIiIiIi4pIUDImIiIiIiEtSMCQiIiIiIi5JwZCIiIiIiLgkBUMiIiIiIuKSFAyJiIiIiIhLUjAkIiIiIiIuScGQiIiIiIi4pBsSDBXumcTQ+26nWeUoYmu15pFH44jPKD7t4S/vokZ4eaIizv2rWeIO3ll1JkH8m7QuW+6C7VXDohgwMuWC8t7r254mNaKoWa0ZDzz4BWuOnisje/dM3n30Hm6vHkXNCvW5u/vbzD9UeLPPtYjI1RkKODh1EI+0qkf1KlHUb3gXL7z2G4cMN7tiIiL/PBuH16dGQDMGT8254HXDxlfo6NaP7zMv2iH+Te4KLUeHzlM4pnbXJVx3MOQ4NZ/Xe7zGDreHGTlvMdPGDCQo6U0G955d7IeofL+JrN6wnpXr17N80Yd0qxZKw8cG0bf2mQTVX2fqrg1F29dMY3jnctSo/RyP9A4FwJ6/lLf6vcYW28N8NHUxs+a9Q3vbON7o9AW7jWC3JLHgg+/JjnmYoeOnEzfpWSJPjGdk3x/UmRCRW15+/Lv856FtBL82k/X7t7Hou/uxzhvAkI8O3uyqiYj8IxX6JLH0xWHMybxKQkMBa8bOo6BDZ0r9NplFanZdwnUHQ6nzx7D6aAf6ft2LRlXKUqlBd4a+0ZHMZd8wbeel6Z0evniXDoL9X/PKY7Mp99pMxoxqQ7jn7wnc8fUNwid/NV88MowNkf/HV7Mfo1FI0WZz/Dw2bq1Bu8FdaVSlLBHlW9Dzo4eJOPwdU1aAyRpG128n8d6zHbmtbjVi6j/AwLblsa9J4JAmBYrILS537z4yS9ShTbtQPJ3u+EV1p2O9fLI3JN3sqomI/CN5136AO2rOZcITv3HqCjfGbfnz+Wl6GN0HDaFP153M/XH3za66/A2uLzwwFHD4t614V2pEA4/zXq7XlCold3BgvbX4/eLfpGePL9h0NIEZI17nvUkHKDhvs5WlDG7zBBN3JrN+1ge8M/LcFBFbRBX8g/azZvrusx/o7HwP3DzSSIvPuaQomyWB9Sv249+pBbUcN/t0i4hcmV+rntQPn84XD8ex7lAheYnfMXVTDRo/1ehmV01E5B8pOLs2/Uc+iWnta3wwN+ey6bKnjeNwxAN0rlKKlg/dTu7Xk9mQf7NrL3+16wqGnIYCsgoLMJT0xeP819198bM5ybNlFbufodKLjNu8gUWLxjDontMseb4v7y45FzhZDI0ZtHAzv62bxievRpH+9cO89XxRdG4K7sOQEc1J+6EtDSpHEVsplu4vzuGIxYDdVHBRQQXseedZPj/YlgdHtsHfebNPt4jIlZn82zLgP7fhb85iy/dP0uue/6OgzVAeaWK52VUTEfnH8qvyMENe9mftk8NYfOrS7TZLAtN/OEilp9tSxgm06MftwXOZ/qv1jxYl/zDXFQwZnO74urnjPJnF+YGzoSCLTLMBi69vsfs5PXwJCw4iqGw0jZ54jQ4xKez+fvN5CdwpWS6IoKAwYloN5ZkubiRPX8puY9G2qj1HMy1+L5uXr2d9wjbmf9KB4EJ3PMr4nl8Jdo/vzdNf+zDg+0/pVOFmn2oRkas7+mMvhnx5B0NHP8ajb3zF1GU/0THpGZ7udeXpHSIicnkGpxuVB4ygT8xsvnzyN44ZL2xQzVvGM2X9aX4Z3IomdevTMvZRxh8/ytbR89X2/std3zQ5pzvlbqtJTsIa1p0XDTk3rGTfyerExlz9TqaTAgpPGrB4uBefwFBA4al8DN7ueJw/suN0p0QZX9yB1CXT2Z1bl3p1ispzGrPY/mVvnhjlzaM/TaB/Ld1RFZFbn92SxKqfN0B05aI7k4DBO5rOvatyePLPLNFzjyIif5rJFM39/30K09rXGDb39LkNZxZOMLX4iHlL5jJzbtG/eT8OxGvN98zWQgr/atd9aQ2651EaV5rLhIfjWLMvmX3bJjN0+Gz8WgygfTTYHZuIe+wRPph+AoDDM79h4ry17NqbzJGDa5j7yhBmHIzitgE1AbBumcR3E39j27ZkjiTvZO2PzzN8jhfhA9tS3nmmszBxFuu2JXP8SAJrp7/Kc8O2E/nwc9xbBhymdDYP7cVjn3nT99N3aB16iuOp6RxPTSc792afbhGRyzPZgqgQGcz++f/ly4UHSM/MIn33fEZ+uZ4SDWtTW889iohcF48z0+WWfzGLdIqGfGz585k21UGVfm0JCw4isHTRv4CGnWlcbx0LflA09G9mvu4M3Nvy9k/v8f5Ln/Ni+2GcNoZRr+VbvP1BR8o4wZGVzuYtq0mLygJKYTHvY9FXY/lk33FO5/gSXrMlA6e8Qt86Rfk5PWHnL+8x9qMDnDjpjl+FOrR5YwLPPBIKTjA43CnYN4G3PnqRA6egdOk6tHjiO556uibuTrDmLeXLb7Zy3Gnivd5Nee9MPQ0Od1oNWsXnT5W62edcRKR4TndqvjWewR7v8e2we/j0cBaGUpWp3/hFhnz+IOX13KOIyPVxulN5wAien92BL34peilr3o+sTm7KK00vnElksUbTpmko08d/z5rBg2mkG1L/SoZThU5dXkVERERExOVoBrqIiIiIiLgkBUMiIiIiIuKSFAyJiIiIiIhLUjAkIiIiIiIuScGQiIiIiIi4JAVDIiIiIiLikhQMiYiIiIiIS1IwJCIiIiIiLknBkIiIiIiIuCQFQyIiIiIi4pIUDImIiIiIiEtSMCQiIiIiIi5JwZCIiIiIiLgkBUMiIiIiIuKSFAyJiIiIiIhLUjAkIiIiIiIuScGQiIiIiIi4JAVDIiIiIiLikhQMiYiIiIiIS1IwJCIiIiIiLknBkIiI3FAORwrxCzdyOPfG5Wk7toVla45wA7MUEXE5Dmciv339Pu+88Q6jxu1UmwqYBg0eOvR6M8k7Ec/KOZP54ftpbM6MoVG0Dw5zGitGvsfPh6tQv7ofJsBhymDj5+8zcX9latdIYvIrH/HD4mUs/XUJi5euZtchD0Krl8XXdGH+zty9LBg/jp8mz2LuopVs3n4cryrRhHgVXXR3LUjEUCUYr2LqZjNsZdIL49kX3Yxqfjf7dF+HxJ8YOXQ3Ph2iKe0897IjZzlfvzKHvKb1iXD/a4q2m1OY//YHrPZuQc2Qvzd+vtr7K/Jvc+KXkbz7yUaIaUiF89osR/4GJgz9HwsOVaJp7YCbXc0rH8OKb/h5a2WaNS+NO2A9sYV5cZOYPm02s+cuYcX6eI5YI6hZ0Yf8HeP5cNR+SreMplTyFN59ayK/rljO0iXLWLZqF2le5YkMLYHJPYsNX09mf/nGRAfoPp6IXJ3TmM2GL97ki5mnCWtWlVJn+pe2PeP54PNMKrcsj8+VMsjcwbIddsqG+mC6lgL/hP0Th/D1+vJ/W7tu3zmZ71ZG0GfIo3SoG4Tlbyn11ma+3gxshnjmf70We+PG1AyfSsKZ1422YBp1q8P6T+exqcOjNPQF+74FLD5UjXZDwrEQj9EWQOMnXqFzJXAWJjLv4zFMmRnOs11DzubvNOSx9+cf2JB7F/0HNyDMkkdGWgaFv/eMc/ewfP4xmrSPIdD5h6svtzq9v+KCbG4prJm2iXrP1sEXwGDlyMyF7C8wXPnCfQuwOw+wfGEOET1i8AWcWRuY+NEccmrfywM9ogn1c5Kbk86xjKIj8ajShnv7Wqhw5opsMdekyzvdqOqA7D1xfP75bLbGPEg9z0iaNHIwbn48uY/H6uaIiFwzp3Uj83+sS4U+4X+o859/aAXLVjagfr2Qf03QUJBrA+8gvN0A9auAGxAMmZ0x3PNKDE5DHlv2Oc8GQwDm8m24M3IkC2ccoeaD7myYtouAds8R6wm2i/IxuEVQLcqdjQfTsXLeh85gIzvPRokSQQR7gRNP/Mt6Fm06NI/PJ64jyWjj6JB3mOffnoH/icW+fSo/TdlFqtODkhWDwQ7hF5VnN6ewYPgEjsZUJS9+I5kBfXnhQXc2TZzGb8n52AohMLIT9/eKxid3L3O+m8rWI3acnp5UbvUQPZv4Y03dwIzJv7I/24bd4UvF23vSrXEQiXFvM83WgAon1rPzRG16PeVk5gcpNBl2Jii0JLJgyFiO3/kqD9RKZU1xZRqzSZgRx9S1x8j1LElYGSc2Q2ix74HTmM/BZRPZtTORlJP5+JTrxP1P1CHECSd3T2XKtO0k54KbVwQxd3enc4w3jlPzGD3kKHXff4jGnuBMn8dnw4/SYNRD1MtfzjfDduHf0szBNQfx7zTg7Pmzs5epQ+Kwdx5MzzomMFjZHTecufb+PP1AhQsai5O7ZjFl+iYSM8HbqyYdX7uHaEciayZOY/H+U9icZgIrtqFznwaEemSw9+c4Zm04RaHFjF9kJwY0PczYuAvf38d+7xyK/GuZca/ckMrpC1m4J5auUWacJ1ewYEtpYmo5SCwoSuU0ZrN/ziRmbj6O3WrD3b8eHR5pSyXHcr5+ezOWugE4srPJPJKBsVItKhlTSc/O5/ixbEJaPUSfFkFn85i1LoksG3gH1KR1r47UKmPGFv81Qxf606zUYTZu8aLuo+Hs+uLCdmzO0LFkdHiVfrXPDUsbj23mcG55WlYtuo+atnoph3xb80T32KIbGk7wKhFKxRJF6W2HFjJ5YiC937mLihefCpsVg7sPvmeuVGVrVMRt8U722mKpdd1XLxFxBQbMhDVsjfuaycw58Az3VLyw8bhcW+q95Rsmzksm1zqLj4bNI6Bxbxoe/IqVgU/xbNcQHDlLGP3mYvx6vkGfBu6QOIURo63cNbwnIfsv0/fKubB/Fdz2DZqdV5eT8RP4dmI+DQY+RPPwc/V05BS164aa3jiy8jl9Ip/AavfSrUsFvDjT15u5jxN2G05nOZr16UnzcDMJF/VHO95zgiUzk8nLS+bToUvxqdyD5/uUuebrQO0h98Dn35BQtip++SfJSUsnwyuKGuWspJ/IJictHcp24sF+sfglLWFM3DqO5efjKDQTWKUT9/WPJcCUwvx3xnK4fFVKZJ8kPyedkzlR3PVMN2r4QuHJDcyM+5X45BwMlmDq932adhGJxfaVb1R/8C+9nBgcPsR0bcnqd+exfIUnW7Ibc3/T4ueqOXP3sm1vAf7VQy/oUBscPsR0bM2Wr8cy4sMoYuvXoU6DaMp6gbN8e57sncuH/2el3bCe1HCAI3s5X32fRNBDr/B4pAenj8/jh21pxZfpOEVWTiS9nrmH4BJW9v80ku0l+vP8ayEYnQeYO3wSCxOiaZe6gM3Zd/Ls8Dr4GqzkFRZ1BBaNXQZdn2VQpAf5mfMY99YvxNfvg7fBRnY61Oo3iK6BZhzmNOqF/4/tG0/TsFUJjInr2ZNdndZ1TSRM+aHYMu/Km8qPG/3o/PJAavhZSV/1Dd/EX+5EWzGWaU3vjkGYjs/jm/eWsvFoHTp4L+fnrw5RcuArPBLpQfbuSXw1No4Vgx+lyVXeO6czA2upvjwzOASLVwoLFha9biKS2+p7M/a3eHLrxOJui2fL5lJEPn9hIOTIWc7P3+zEv/cLvFnbGzdrHgUWKwmTxrM4sy0Pv9mAIFMK68aMYdJPQTzZbje/Li9FmxFPUssM9lwrJq/oS95fEVfgZoykdafjfD1jJcmv1uXkrBVYb3uYRvnjzgZDOdt/Yk58LP1fbEBJ9zz2jhvJL8vq8mRzMFihVIv7ubu0GdvuHxjxRRrBbz1EJ1/IWf8p/52ziSMt2+K//Sd+WuvNXU8NoVZQHikzv2TsVysp/WYLggBLSjYlOg/k5T7emEwZ+Ff8mE1rM2nYxg/7gdXszq/FPdUvnJ97Ouko2X41KG0BsJKSlIF7aMQ1j+xabVv5ccgeTAYb1kwofedDZ0eN7KXL4ccqko9CrfBry09ExOxXj3vv3sVnP/5KvZfaUua8bZdrS59uP4B+WSP5bM/tPP9sHbyA0+vDmbv4AMcNIXjuTOB0oDen4xOxNqjCyW17MVToRqX85Uy4XN/LcGH/ysMN9k8Ep8FGanwc3xcTCP3OYIXSd/Tl7tJmHPlb+HFYHLNiBtG97CqmxBVQ58VXqOsLp9d/wf8mbaLmCw1wXtQfBYh0fsGoxTV4YlBTAp2Qvf3ra74OGM0pLLDl41m2PX1blcBu38D4QfM53eIFBtzrgTN9Hp++t4Jt2bE0L92Inv9phY9b0TTvH4YuYs3RWNqHgcGWD74tuP++IIzmFBa/O5q1G9sT3SaTRV9PJ7XcAF56qgIlrHkUYiVhWvF95a6VbtDn46/+ABpKNqNN0zWMmeQgZkAPws7rMTvMGaz+ejDrAXuhmYhGvbi/Q+Alw3aeZVsxYFg9jm3fypo1vzB2zi/E9H+CLjEel5RXuH8PaR4x3B3lAU5wDwrF17mt+Lo5zZSMiiLYC+zmo+zcf5o003TGfFJUgQKjG1UKoUTlmgTNX8j3P2TTtHFdoit6Y8hI4EBaDnkLxvLZ/KIPcqF38Nm8SwREUunMB89oC6ZO8zBW/BZP5u11yFi7F3vtB6jmkcKcy5SZtP0AbhH9qeELOC0ElQ3AfJnOhMHuQ7moILwAW1AoJdmG1QqFCfGk+sTQ6cy58KrRiGp+Y9i3006TqKu8b3YfImKKvqj2i7YFt2hG4LI1bMqOpVbCBg6WbsSTZS5MU5gQT6pHddrX8cbiBKfFE5M5kX17CwhvX/dMRymUWo3CWDh9LylBUVQIi2PBF9M53bwhNWqGaARIXJpnvQ7UXjSWOVOOkruvBh3uD8Ey58xGg5XUbUc4kZ3Hj19uAMCW74altLVou9NMSa+i9sfk54GX0YT7mXllHl4eYLMVXXy3HcEtoj+1AwGnJyGtahK4OJ7dWUUXQaNXKOUrFn2HsQdQq1VFfp25hpS2d5C1fC+eTR4n8qK5I6dP5mMwe1LCWdQuns+Rv4GJ789hnx2M1hh6jOhG5YuO22KuSZdhRdPkCrI3MGXkBH4OfoH7a3vg9PDE05jH6dM3+90RkX8Sg9OM721duGPjZ0z9NZYnKhS9/ns7eNm29CIesbWImLSNndl1KbPzFKHtm+GcvpfDTn8O7rFTrm1FSPj18n2vmAv7V7/LOjqb7350p/Zjj9I87DJd8/PadYNnFNHlJvPbtgwK8+NJtGdyevxo1gBY8/E4r10+vz966Ymx/qHrwO/9QTc/jzNV8sTXZMLgW/S3w88bDyfYC8BhOsLquHnsOGHA6GYjz2HF97y2u0TpklgAp8OHAC8n+202DKf2cPhoKNUfKhrxclo8MVoSL9s/v1H++okGTgvl61QkYLmT2BrucN7d/d+fGepUIYVfPx7DLp8A/C7X4Xf4EBLTjHurN6RG3HB++G0vnWJiL53DabDxpznNVG7zaNH0rws057FXo9i7dR1rp4xiWUhfBnYEkzOEpgMepbHnhan3F5O1R51GVJi2jk1ZAWRuK0GtR8OBxOLLNFjZvwUcbtyafGvSvPZCFq0+iPnAMcrf/kCxgYuzmAm2VkPxWZqpSPsXXqD2jo2sWTuBz2Y24oE3W6Cbv+KqzNZQWt5bha1f7Ce4+7NEWiD5vO02oGTle3iyz4XfEkfO/j9Uzh/hFtOKmlMns2JvCI4dpWkwKPCSNCYvMw6jlUIDGJyeBJfxpmBHIscN4QR61KP30Ho4j07hfyOcWK9Wnm8M1SKmsWR3BtQOwWAr2sP0b5m8LyJ/G6MtmIYPtGTT+9NY6n3u6cvLtaXF5uEZQ/VK81i3Zy+nEssS0zuSvIVx7DvkTUpqFI2qmiD+qtlcwuTjT4nCFJITcyDM/+o7GGzYDGDwLvrTzaMR9z3TgpCL+tBpV8/pL+E02Ngz4wc2mx7g6Veq4M5epg2aevXDutxF4bL98xvjlliSx2gM5ba+DTEtncz8pIuCGYOVU4cSScvKxwpYMw4Sn2THx79oBQynBSz2XArORJvuEVGUyo5n5Z58AAqTUzhxDUdpsoUQWcFEwtI1JJ15M2zZGWQXgj0rm1yPYCIbdqR7m7KcPpjIyaBKhAYnsnHumaVeDVYKTmRcdolCkzmG+tVT2TxpKYe8GlG/zBXKLLBQplo4tv1r2Z5VtIhEenIGNsPVj+N8bpViKH3euTi9Zw27MiOIqmQCswdG8ymOnrDhNORx9FAKuYYrF2A/U0eD05OqLWuRuzqO5Udq07DOpSN07hFRlMrZwcr4nKJ9Cq3YbSFEV3HnyIqNpFrBaU9jy5okSlSOpLQ1m5wCT0JimtG5RxOCTuwhKffS91fElVgq3seLI16nb33vCzc4LYRFh5C7axmbTpxpM+0ZZGRe+80gg9NM6dhwChPPtTNHl2zluF8lKl9mWNZoiKBRKxN7f5jF0QrNqFNMOv+AAMhJJ+vM36G3taJs1iImTd5GSlZR/ay2a6xn7gH2J1rwr1SyqPysbHJsAZQMvrbdRUTOZyjZjK6tClk5Zy/5FLWDV2pLnSXMkJ9H7pnukcHhQ7W6IRxb/CsH/KKoagmifLSV+OkbyY6qR6T5Kn2vy/Au0ZL+jzQhb/aXjN9wqtg0TlM2yQmnivrCqRvYtM+XiMjAov7WqY0sO9PfchryOHU879pOiNPyh68D15StwUZerg03swcWICclgVT71TuxjuBKlA9MYfuyc31rR+7l++c3yi3zCKp7UGu63LWHsRN+pfpLbSl/3p2/jN3zmLouifRsGxY3fypEdqF3t6IV55xl6lO30gRmDBvGr6Hteeg/zenW5yg/TvyAoU4PSlYph7fHNdxGdFqI6t6b5nGzGP/WIqyAt3cMrR7vRsWEWUyYd5Asmw2TIZTaXeoSYvWm/YCOTImbwIjBNgxOM/5hbejxeIPL5l+xVTSOD3cQ1LNv0UjKFcqsXbcr3Q7GMeXDYcz0KEloZAmu5TDOZ/RuTvf+6fw85QOG5oLRLZRavXrQJBAcplo0qreWWZ++Q4J/KCFNA/B1ZhWfjz2AKjH+rJs5kql+r9ClKtgj6lLbcy27GzSkYjGjeYaSzejeL53JM0bxxkTwdo+hwwvdqNG5H7dPnMbXb807s4BCB3rcVwG3k8uJG7eKpDwbdocXFe/uRj1PcHpc+P4OeLaBVpUTAbzq3EeXxEn88t93mGkAi3swNe55kI7lrz0P7xr3cV/iJGb9dxhTbFCiZAydHruDcOeli9z8LqBBI4JnLKP07dHFrq5kLF+RkJztHEmHioFg8GlEr2fM/DJ7Ed++N5FszHi6lSSi5h2X3MWEc88MmQGb00xETG+6NSh6LqngcMK5i7TaARH5o5wWgtp2od720awrilUu25be7WcmMKYR4Svm8PHrSwlt9hBPtAvBI7YW5abMoPCOSngBluhwrL/uJ/yxiKI28Up9r5zLV82zbCv6PJbD2C++JM45kF71/S9Jc2LXJD6ZcZScAh8qdOhFh0pgMDSj24NF/a2hEwGTB2Ub9+KRttc2t+bPXAeuxujwoHq71myYMJYP3vHBr1wEvv5X389kjaD1wx3JjJvAh4NsGNxKUqv343S6TF+57g2aQWU4VejUJUX+sIJTS5gw4iCxgx6ioR7uEXEZGeu/4OvFNXjwzMO3F3Mas9k6eiTLyz3N0+0D/3gBl+E0ZrNx9EhW3+B8RURudY6c5XwzeDvV3nqCZrf67yv8A90S0+Tkn8NhymDzhPf5YMRm3O7upEBIxEU4bPFMHT6cT34xUad3w8uO0BocPkTfXQ/nmkXsvMaZGtfCmryQ1Sk1uKOlAiEREblxNDIkIiIiIiIuSSNDIiIiIiLikhQMiYiIiIiIS1IwJCIiIiIiLknBkIiIiIiIuCQFQyIiIiIi4pIUDImIiIiIiEtSMCQiIiIiIi5JwZCIiIiIiLgkBUMiIiIiInKBAstSBleqzOOfnrjZVflL3ZBgqHDPJIbedzvNKkcRW6s1jzwaR3xG8WntliTWj3uePrfXo3qVKBrW78Irn2zhlOFcGqcxi92zR/N8l3rUDIllyKxz2/It83k5MoyoiPIX/Gt/+5RzeRgKODB3KE+1b0q9KlE0qHUHDz04m0MGRERuaYe/vIsa4Re2bzVL3ME7q84kMBRwcNFonu9Z1ObWrNaMgQOmsD3/8nk6TOlsjxvKk/fcTpMaUcRWiqVNs/t55cO1HDMUbZ//dE3ubRTHIQPYLAl82+Zc+VXDomjeuj/vzkih4GafIBGRP2D1i5VpV/PbS/qAJ6f3ornbQGb+yUatcPVjtIsYwZrr6Ek7kz6jZ8WIC9r7Zm7PMM10hX1ydjLvgyfpc3s96lWJokZMfe66ayDvzkgp2p7wLl2rNGPIEutffm4vvnYAxL9djy69l//lZd9I5us+Eafm83qP1zgY+xYj57UgKGMV3wx9lcG9fRk9ryNlnBemd1syho8WB3D3S5/xajk3js15l2FDH2FkxVUMv8uC3ZLE9M4d+fL0bTS5ozHhm5ZdsL+HtS3vrNvJywUFOI0F7J4+iI++KEnPd+/E/0xZJ+Y9zsP/yaPlBx8xqU4lfI2ZHD0K/jf7bIuIXEX5fhNZfU8B+YAjcyn/9/R/Sa8+iL61i7bb8ucz7v1dVBswlB6Dg3AmTeDDx17lg9dj+H5U1Uvyc5jS+e25u3hhWhB3vPI8/1c7mpIl88lOTyJxf1Eao8OXyHY9aVG/NiHntdn1O81g9KiquFvT2TZxEC8/9DABK+byeLWbfZZERG6u7LQ0rIaK15WHITOVnKRWDDkwijstRY2v08OdIHvx6R15q/mw2wPMzGhN//98xIvVw/AxZnI8OYGjzjONd0ArunULIKyc5S8/B5dcOwwFpKdmYvvLS76xrjsYSp0/htVHO/Dyul40cgfoztA3VtK+zTdM29nxkoumvdlbTGx27u/KMQ9T6+OnSD2cDoRisgXR9qu1dA1wx5H2HQM+XnpJmRZ/X0rl7GTKK4OYXdCPt1Z2pYZH0bZCy2a+eXct0YN+4817S53ZI5DAcMCJiMgtzenhi7cH5K98j1cG76bxkJm80yLw7Haz+90MW3T32b8dsc/Tu14cX+/eTwFVcb8oP+O2T3j3Rzfu/Oon3mvvfW5DpWhqNeJMu+jO4V8+Y358JP37VeNsKg93fD3cwSOM2v16EDvsBQ6st0K1v/4iKyLyd3Eas5jduzofGx+hqftGtu4/zskT7tS8awhvvHfbBTf2HaZ0Zj3RkRG/pHLcuYl+YaMJPtad1+wf0t5RwK6pQ/nofwtZnZRNCf8Ymvd/hTeeanj2hv35jJmZFBJOaLlAAu1Xr+eR795g1pLWPH34S3qWOfd6xZja5/7I3cSUcROp3elxmlcsOrb1457j3f8tZ78jmFo1H6Aan7DZ51t+/l8DsrZ/zauD49iZnMyJk+6Elm1J7/dH0afJuXY+bddkhvSbwcJNB3Ba6tB20Lu82qMC7s5z145e/RP5otlrTD5opdDQh6gIqFh5FBOXdC322G8l1zdNzlDA4d+24l2pEQ08znu5XlOqlNxRdNG8ivxV89iTW4X6jUKLXnC64x3gfsV9HKZ0Zj9+L2/M2MP+7d/w8XPfsuZo0TbLwVVs3VGGQts3PH9fe9o3aUands/w1YLkm3qiRUSuWfyb9OzxBZuOJjBjxOu8N+nAZaenOTOW8NsWH8LuqkNxLeeeVasoONmY2zp6cz0yF89jn60u0fUVCInIv1N+InQYNp0Zi1ewcFZ/rHOfZPBnKRekMdqDuHfEb3z5aBghHgMYu30vi099SHs75Cz+D/95bB2lHv6aX1auIG5ELEmfPsxLF+Xxu8LMTI6Fz2Roo/o0q92Mbve8xIRlx4tN6zCls2Hhfnxad6JdyLUf08m5/+GV544SO2gGS+b/yKt9Mji8tfDsdo8Slbn3xc/4ftYGfls/nj7lF/DDC5M59vu0QmM+1kS47cmvmb5kLqN62lj4xJOM33RhOW7Otry4eBKDGkNk/a9Yv3cPM2ff+oEQXGcw5DQUkFVYgKGkLx7nv+7ui5/NSZ4t68r7p87k7ecWUfqR9+hX5w9U2h5Ey1G/smLjCr796kEiDg1n+L1F8xWNqYmkk8XpnWG0e/kjPvn+E55odohxvR5hzKZrL0NE5GYxVHqRcZs3sGjRGAbdc5olz/fl3WLmfztsCUx/8l32lnmBF54KLTav04cyMQcFnZ3+Zlz1LE2rx1K3eiyNY7pcsV3cOLUPTerWp0mNKJo+spigzk/QPvpmnx0Rkb+Gb8lG1D4TaHiU60H/1nkc+W7pucDgDIenO+4OD0wF7pgC3LB4FY3ArIqbjTHmCQY9UIuw4CAq3f4qL3fxIHHUTHYX0+M2NxvMpOnT+GHiNH76YSR9Km/js/uf5vtDl6a1G9PJOmXA09/vbICxY0Rr6p5pz9tEvs3Si541chqz2DhlIR41B/B892oEBYVRtW0fWlQ+dz1xq9iS1s2qUbaMD/4la3PHHZWwpiSdO2aHB2XbdueOBmUJDqxEvdefp12lPSxdsPuSOnq4++LhdGLw8MDXwx2L181+R6/NdQVDBqc7vm7uOE9mcf6zu4aCLDLNBiy+vpfd13FqPoPve43kyP/ywYc1cb96cRfwCQ4jsHQQVWK78/ozzcnYtIA1R4vmWno6gqjZrxd31q1G5Yq1uWPYq7QL2cOKeQdv4qkWEbk2Tg9fwoKDCCobTaMnXqNDTAq7v998YRprErMf68UnSV0ZPOtBqjqKz8vHzx1bevrZBWacdd5m+pK5TPuuC+GJ+RcsXnOxWp0+Y+bcucxctIJFcz4kbN9DvPTQuivuIyJya/G87BbTlXqfTnd8/fxxpmVdEgwVx25K5/gxE54Vws+NhjjdKRURjPVIUvF5+FSiao1KlI0Io2x0I9qPep4WJdazcvalq7cZ8cXX30neqcyzbXDswIksmDuXuKerYD9UUGydklMvqtNFCg7P5L2+7bm9bn2aNr6DgV8dueJxGgmmUrAd+74rD3j8k1zfNDmnO+Vuq0lOwhrWnRcNOTesZN/J6sTGFD+dwpk6kzc7v8aRyNF89F2bSxZZ+KMK8os+ADZPsFapQYjPPg6uPPdBMhZCocGAxf2PhlwiIjeXkwIKTxqweJxrvxy2BKY80Y1Pk7vy7rTBNPG//P4RrZviXnI182fnFOXn4UtQUBjhQUFXLdtk8SWwdBCBpYMIq3k3/duXIeXn+WzRjzKIyD9EYFBp8vbtZN9FK24e3ZaIyTOI4MvESk5jFsmHszCWC7qmfqrJHkRgGTt5B49csLrxicQ0LOFh19zXLTAWH3mZrGHE1qtC9qJZ/HLm0RCHXxClIsIIKl18/9ZkDyLQz3Fhnc5jtyTx80vPsKbgScavWM/KNXMZ0TfiivVzkEZCmgn3ile/hvxTXPclLeieR2lcaS4THo5jzb5k9m2bzNDhs/FrMYD20WB3bCLusUf4YHpRcJKfOJln7nmNAzWGMXh4NOZj6RxPTefEsWuLMB15q/n581ksX3+ApKQE4leOZtCHGwi8txut/cHs0Zb7O3uy7uMX+HbFAY4fSWDdhx+xNL0+rbqFXlMZIiI3y+GZ3zBx3lp27U3myME1zH1lCDMORnHbgJoAOHI3Ma5XN8YkdeH1/3uIyIJzbWhxzxWZGz7NU+2zmf3Ufbw8ZjZrdxS1nbt2JFFgukpl8gvIyi+gMK+ArEPziVtyFK+60ZcdhRIRudVU7tWTCuVmMOaBb1mwcRf7D2xm+fgneXlcGqVf7U6j89qztD0/M/HXXSSlpZPw63uM+cWPyEdaFhvI+JRxp+BYAnv2HOfk4XQynb406dWRvF2jGTFhN0lp6exf+REjpuZT7qm2l7SbTmMWGyd9z6xVW0g4kkTyzjXMeOpd1ufdTotupYo/lkffoEWTXxl1z0DGTF3L5v0HSNmXwK592cWmNzh8adrlDrK2fcNHk3eRnp7E7vnfMf9AUWUcZFGYARYnuBsKSTuwmhUrLhqVMuaTPH8yC7Ynk3Y8gQ3vfMSCxAa06lLh0vKc7rh5OMk+Gs+O9OMcPVh8vW41172anNm9LW//9B7vv/Q5L7YfxmljGPVavsXbHxQtq+3ISmfzltWkRWUBpUgY/wELknMg+SnumnkunyD7Aww/NpyWV1tNw+lOwY7veOeH3SSlFuBZsjLNb/svI98+s4y305dm//cjb745lM+fa89/T7pTJrIlj/z4Jg+Uv9mnW0TkyizmfSz6aiyf7DvO6Rxfwmu2ZOCUV+h75rlK85YxfL46gyzDaB5tPfrsfl7HYnh065xLVvA0WcO4a9wcQr76iC9/eo8nPzxOocMd7/AwavXsTusKl6/L+lmdqX/md948SoRRs8EbvP5+1+sezRcR+bsYwh/mk5/cGTkqjqH93+dEnjvBZWJo8fx3PPV01QtWGjaU9eXo+OfpueoAOV6Vaf7qpwzrVarY1YiDOz9D62mv8WGHpkxw786gjcNpc/vHfD56KO9+8gDt3ipaTa7lQ1/z3PMVis3Dkbeaya9/wc6kdKzmICKrt+W1Ba/QscxljiWgJe/8PIlao0bz88in+F96FgY3X4LKVqbue3cWe6PKv9sI/i9tEMPf78wdwyOo2eJOSvu6ccTujsUaTaehA1ny0qu0qf0+lWNbcndsOJz3qzaGwtIE1YJf3uzBazuOYwlqTLdxo3iwmJ9YMDh8afGfx5j0zEf0ajSayLrv8unkjrf8NcNwqtB5i1dRREREROSv8fvS2qNzv2H6lDZ/+Dn2fxKrZSejG3dk072/Mv65Ctef4b/AdY8MiYiIiIjILejEJn7dYqRC5TC8S2SyZ9q7zNzbkAfvVSD0OwVDIiIiIiL/RtZ01o3/mHc2HeB4XtGjI/f9pEdHzqdpciIiIiIi4pK0QKqIiIiIiLgkBUMiIiIiIuKSFAyJiIiIiIhLUjAkIiIiIiIuScGQiIiIiIi4JAVDIiIiIiLikhQMiYiIiIiIS1IwJCIiIiIiLknBkIiIiIiIuCQFQyIiIiIi4pIUDImIiIiIiEtSMCQiIiIiIi5JwZCIiIiIiLgkBUMiIiIiIuKSFAyJiIiIiIhLUjAkIiIiIiIuScGQiIiIiIi4JAVDIiIiIiLikhQMiYiIiIiIS1IwJCIiIiIiLknBkIiIiIiIuCQFQyIiIiIi4pIUDImIiIiIiEtSMCQiIiIiIi5JwZCIiIiIiLgkBUMiIiIiIuKSFAyJiIiIiIhL+n8EUy4jfpwrzQAAACZ0RVh0Q3JlYXRpb24gVGltZQAyMDIxLTA2LTE0VDE3OjA3OjU1KzA3MDBecBMUAAAAJXRFWHRkYXRlOmNyZWF0ZQAyMDIxLTA2LTE0VDE3OjA3OjU2KzA3OjAwYbhxVQAAACV0RVh0ZGF0ZTptb2RpZnkAMjAyMS0wNi0xNFQxNzowNzo1NiswNzowMBDlyekAAAAZdEVYdFNvZnR3YXJlAGdub21lLXNjcmVlbnNob3TvA78+AAAAAElFTkSuQmCC;" vertex="1" parent="1">
          <mxGeometry x="-190" y="480" width="863.76" height="180" as="geometry" />
        </mxCell>
        <mxCell id="XYlybEsTkhaIwOSgg5BH-23" style="edgeStyle=orthogonalEdgeStyle;rounded=0;orthogonalLoop=1;jettySize=auto;html=1;" edge="1" parent="1" source="XYlybEsTkhaIwOSgg5BH-11">
          <mxGeometry relative="1" as="geometry">
            <mxPoint x="210" y="290" as="targetPoint" />
          </mxGeometry>
        </mxCell>
        <mxCell id="XYlybEsTkhaIwOSgg5BH-25" style="edgeStyle=orthogonalEdgeStyle;rounded=0;orthogonalLoop=1;jettySize=auto;html=1;" edge="1" parent="1" source="XYlybEsTkhaIwOSgg5BH-11" target="XYlybEsTkhaIwOSgg5BH-16">
          <mxGeometry relative="1" as="geometry">
            <Array as="points">
              <mxPoint x="130" y="290" />
              <mxPoint x="130" y="164" />
            </Array>
          </mxGeometry>
        </mxCell>
        <mxCell id="XYlybEsTkhaIwOSgg5BH-26" style="edgeStyle=orthogonalEdgeStyle;rounded=0;orthogonalLoop=1;jettySize=auto;html=1;" edge="1" parent="1" source="XYlybEsTkhaIwOSgg5BH-11">
          <mxGeometry relative="1" as="geometry">
            <mxPoint x="210" y="423" as="targetPoint" />
            <Array as="points">
              <mxPoint x="130" y="290" />
              <mxPoint x="130" y="423" />
            </Array>
          </mxGeometry>
        </mxCell>
        <mxCell id="XYlybEsTkhaIwOSgg5BH-11" value="" style="points=[];aspect=fixed;html=1;align=center;shadow=0;dashed=0;image;image=img/lib/allied_telesis/computer_and_terminals/Personal_Computer_with_Server.svg;" vertex="1" parent="1">
          <mxGeometry x="-170" y="190" width="200" height="200" as="geometry" />
        </mxCell>
        <mxCell id="XYlybEsTkhaIwOSgg5BH-16" value="" style="shape=image;html=1;verticalAlign=top;verticalLabelPosition=bottom;labelBackgroundColor=#ffffff;imageAspect=0;aspect=fixed;image=https://cdn3.iconfinder.com/data/icons/media-62/512/multimedia_audio_media-27-128.png" vertex="1" parent="1">
          <mxGeometry x="220" y="114" width="100" height="100" as="geometry" />
        </mxCell>
        <mxCell id="XYlybEsTkhaIwOSgg5BH-17" value="&lt;font style=&quot;font-size: 18px&quot;&gt;Memori: 32gb&lt;/font&gt;" style="text;html=1;strokeColor=none;fillColor=none;align=left;verticalAlign=middle;whiteSpace=wrap;rounded=0;" vertex="1" parent="1">
          <mxGeometry x="330" y="151" width="120" height="26" as="geometry" />
        </mxCell>
        <mxCell id="XYlybEsTkhaIwOSgg5BH-19" value="" style="pointerEvents=1;shadow=0;dashed=0;html=1;strokeColor=none;fillColor=#434445;aspect=fixed;labelPosition=center;verticalLabelPosition=bottom;verticalAlign=top;align=center;outlineConnect=0;shape=mxgraph.vvd.cpu;" vertex="1" parent="1">
          <mxGeometry x="235" y="255" width="70" height="70" as="geometry" />
        </mxCell>
        <mxCell id="XYlybEsTkhaIwOSgg5BH-20" value="&lt;font style=&quot;font-size: 18px&quot;&gt;CPU: 8&lt;/font&gt;" style="text;html=1;strokeColor=none;fillColor=none;align=left;verticalAlign=middle;whiteSpace=wrap;rounded=0;" vertex="1" parent="1">
          <mxGeometry x="330" y="277" width="120" height="26" as="geometry" />
        </mxCell>
        <mxCell id="XYlybEsTkhaIwOSgg5BH-21" value="" style="outlineConnect=0;dashed=0;verticalLabelPosition=bottom;verticalAlign=top;align=center;html=1;shape=mxgraph.aws3.s3;fillColor=#E05243;gradientColor=none;" vertex="1" parent="1">
          <mxGeometry x="239.5" y="388" width="61" height="70" as="geometry" />
        </mxCell>
        <mxCell id="XYlybEsTkhaIwOSgg5BH-22" value="&lt;font style=&quot;font-size: 18px&quot;&gt;Storage: SSD (30gb)&lt;/font&gt;" style="text;html=1;strokeColor=none;fillColor=none;align=left;verticalAlign=middle;whiteSpace=wrap;rounded=0;" vertex="1" parent="1">
          <mxGeometry x="330" y="410" width="192" height="26" as="geometry" />
        </mxCell>
      </root>
    </mxGraphModel>
  </diagram>
  <diagram id="JZgBU0Bw1tsv3xy5okFa" name="Page-2">
    <mxGraphModel dx="3102" dy="2088" grid="1" gridSize="10" guides="1" tooltips="1" connect="1" arrows="1" fold="1" page="1" pageScale="1" pageWidth="850" pageHeight="1100" math="0" shadow="0">
      <root>
        <mxCell id="PhGJAT5VoefX_bClDmPp-0" />
        <mxCell id="PhGJAT5VoefX_bClDmPp-1" parent="PhGJAT5VoefX_bClDmPp-0" />
        <mxCell id="PhGJAT5VoefX_bClDmPp-24" value="" style="rounded=1;arcSize=10;strokeColor=none;fillColor=#DBDBDB;gradientColor=none;" vertex="1" parent="PhGJAT5VoefX_bClDmPp-1">
          <mxGeometry x="231" y="39" width="209.75" height="390" as="geometry" />
        </mxCell>
        <mxCell id="PhGJAT5VoefX_bClDmPp-14" value="" style="rounded=1;arcSize=10;strokeColor=none;fillColor=#DBDBDB;gradientColor=none;" vertex="1" parent="PhGJAT5VoefX_bClDmPp-1">
          <mxGeometry x="550.5" y="120" width="199.5" height="199.5" as="geometry" />
        </mxCell>
        <mxCell id="PhGJAT5VoefX_bClDmPp-4" value="" style="outlineConnect=0;dashed=0;verticalLabelPosition=bottom;verticalAlign=top;align=center;html=1;shape=mxgraph.aws3.ec2;fillColor=#F58534;gradientColor=none;strokeColor=#FF3333;" vertex="1" parent="PhGJAT5VoefX_bClDmPp-1">
          <mxGeometry x="290" y="77" width="100" height="114" as="geometry" />
        </mxCell>
        <mxCell id="PhGJAT5VoefX_bClDmPp-5" value="EC2 instance contents" style="points=[[0,0],[0.25,0],[0.5,0],[0.75,0],[1,0],[1,0.25],[1,0.5],[1,0.75],[1,1],[0.75,1],[0.5,1],[0.25,1],[0,1],[0,0.75],[0,0.5],[0,0.25]];outlineConnect=0;gradientColor=none;html=1;whiteSpace=wrap;fontSize=12;fontStyle=0;shape=mxgraph.aws4.group;grIcon=mxgraph.aws4.group_ec2_instance_contents;strokeColor=#D86613;fillColor=none;verticalAlign=top;align=left;spacingLeft=30;fontColor=#D86613;dashed=0;" vertex="1" parent="PhGJAT5VoefX_bClDmPp-1">
          <mxGeometry x="245.5" y="55" width="180.5" height="142" as="geometry" />
        </mxCell>
        <mxCell id="PhGJAT5VoefX_bClDmPp-6" value="" style="outlineConnect=0;dashed=0;verticalLabelPosition=bottom;verticalAlign=top;align=center;html=1;shape=mxgraph.aws3.rds;fillColor=#2E73B8;gradientColor=none;strokeColor=#FF3333;" vertex="1" parent="PhGJAT5VoefX_bClDmPp-1">
          <mxGeometry x="595.25" y="160" width="110" height="124" as="geometry" />
        </mxCell>
        <mxCell id="PhGJAT5VoefX_bClDmPp-9" value="" style="rounded=1;arcSize=10;dashed=1;fillColor=none;gradientColor=none;dashPattern=1 1;strokeWidth=2;" vertex="1" parent="PhGJAT5VoefX_bClDmPp-1">
          <mxGeometry x="-110" y="-70" width="970" height="580" as="geometry" />
        </mxCell>
        <mxCell id="PhGJAT5VoefX_bClDmPp-10" value="" style="rounded=1;arcSize=10;dashed=0;fillColor=none;gradientColor=none;strokeWidth=2;" vertex="1" parent="PhGJAT5VoefX_bClDmPp-1">
          <mxGeometry x="-64.25" y="-30" width="894.25" height="510" as="geometry" />
        </mxCell>
        <mxCell id="PhGJAT5VoefX_bClDmPp-11" value="" style="dashed=0;html=1;shape=mxgraph.aws3.cloud;fillColor=#F58536;gradientColor=none;dashed=0;strokeColor=#FF3333;" vertex="1" parent="PhGJAT5VoefX_bClDmPp-1">
          <mxGeometry x="-140" y="-90" width="80" height="50" as="geometry" />
        </mxCell>
        <mxCell id="PhGJAT5VoefX_bClDmPp-15" value="&lt;b&gt;RDS&lt;/b&gt;" style="text;html=1;strokeColor=none;fillColor=none;align=center;verticalAlign=middle;whiteSpace=wrap;rounded=0;" vertex="1" parent="PhGJAT5VoefX_bClDmPp-1">
          <mxGeometry x="632.25" y="209" width="40" height="20" as="geometry" />
        </mxCell>
        <mxCell id="PhGJAT5VoefX_bClDmPp-3" value="" style="outlineConnect=0;dashed=0;verticalLabelPosition=bottom;verticalAlign=top;align=center;html=1;shape=mxgraph.aws3.virtual_private_cloud;fillColor=#F58534;gradientColor=none;strokeColor=#FF3333;" vertex="1" parent="PhGJAT5VoefX_bClDmPp-1">
          <mxGeometry x="-79" y="-40" width="79.5" height="54" as="geometry" />
        </mxCell>
        <mxCell id="PhGJAT5VoefX_bClDmPp-19" value="" style="outlineConnect=0;dashed=0;verticalLabelPosition=bottom;verticalAlign=top;align=center;html=1;shape=mxgraph.aws3.ec2;fillColor=#F58534;gradientColor=none;strokeColor=#FF3333;" vertex="1" parent="PhGJAT5VoefX_bClDmPp-1">
          <mxGeometry x="290" y="290" width="100" height="114" as="geometry" />
        </mxCell>
        <mxCell id="PhGJAT5VoefX_bClDmPp-22" value="" style="outlineConnect=0;dashed=0;verticalLabelPosition=bottom;verticalAlign=top;align=center;html=1;shape=mxgraph.aws3.elastic_load_balancing;fillColor=#F58534;gradientColor=none;strokeColor=#FF3333;" vertex="1" parent="PhGJAT5VoefX_bClDmPp-1">
          <mxGeometry x="17" y="173.5" width="76.5" height="93" as="geometry" />
        </mxCell>
        <mxCell id="PhGJAT5VoefX_bClDmPp-23" style="edgeStyle=orthogonalEdgeStyle;rounded=0;orthogonalLoop=1;jettySize=auto;html=1;exitX=0.5;exitY=1;exitDx=0;exitDy=0;exitPerimeter=0;" edge="1" parent="PhGJAT5VoefX_bClDmPp-1" source="PhGJAT5VoefX_bClDmPp-19" target="PhGJAT5VoefX_bClDmPp-19">
          <mxGeometry relative="1" as="geometry" />
        </mxCell>
        <mxCell id="PhGJAT5VoefX_bClDmPp-29" value="EC2 instance contents" style="points=[[0,0],[0.25,0],[0.5,0],[0.75,0],[1,0],[1,0.25],[1,0.5],[1,0.75],[1,1],[0.75,1],[0.5,1],[0.25,1],[0,1],[0,0.75],[0,0.5],[0,0.25]];outlineConnect=0;gradientColor=none;html=1;whiteSpace=wrap;fontSize=12;fontStyle=0;shape=mxgraph.aws4.group;grIcon=mxgraph.aws4.group_ec2_instance_contents;strokeColor=#D86613;fillColor=none;verticalAlign=top;align=left;spacingLeft=30;fontColor=#D86613;dashed=0;" vertex="1" parent="PhGJAT5VoefX_bClDmPp-1">
          <mxGeometry x="245.75" y="270" width="180.5" height="142" as="geometry" />
        </mxCell>
        <mxCell id="PhGJAT5VoefX_bClDmPp-31" value="Elastic Load Balancing" style="outlineConnect=0;gradientColor=none;html=1;whiteSpace=wrap;fontSize=12;fontStyle=0;shape=mxgraph.aws4.groupCenter;grIcon=mxgraph.aws4.group_elastic_load_balancing;grStroke=1;strokeColor=#007DBC;fillColor=none;verticalAlign=top;align=center;fontColor=#007DBC;dashed=0;spacingTop=25;" vertex="1" parent="PhGJAT5VoefX_bClDmPp-1">
          <mxGeometry x="-48.120000000000005" y="120" width="206.75" height="160" as="geometry" />
        </mxCell>
        <mxCell id="PhGJAT5VoefX_bClDmPp-35" value="" style="shape=link;html=1;entryX=0;entryY=0.5;entryDx=0;entryDy=0;exitX=1.015;exitY=0.203;exitDx=0;exitDy=0;exitPerimeter=0;" edge="1" parent="PhGJAT5VoefX_bClDmPp-1" source="PhGJAT5VoefX_bClDmPp-24">
          <mxGeometry width="100" relative="1" as="geometry">
            <mxPoint x="449" y="129" as="sourcePoint" />
            <mxPoint x="549.5" y="218.75" as="targetPoint" />
          </mxGeometry>
        </mxCell>
        <mxCell id="PhGJAT5VoefX_bClDmPp-37" value="" style="shape=link;html=1;entryX=0;entryY=0.5;entryDx=0;entryDy=0;exitX=1;exitY=0.75;exitDx=0;exitDy=0;" edge="1" parent="PhGJAT5VoefX_bClDmPp-1" source="PhGJAT5VoefX_bClDmPp-24" target="PhGJAT5VoefX_bClDmPp-14">
          <mxGeometry width="100" relative="1" as="geometry">
            <mxPoint x="510" y="410" as="sourcePoint" />
            <mxPoint x="610.5" y="499.75" as="targetPoint" />
          </mxGeometry>
        </mxCell>
        <mxCell id="PhGJAT5VoefX_bClDmPp-39" value="" style="shape=link;html=1;entryX=0;entryY=0.75;entryDx=0;entryDy=0;" edge="1" parent="PhGJAT5VoefX_bClDmPp-1" target="PhGJAT5VoefX_bClDmPp-24">
          <mxGeometry width="100" relative="1" as="geometry">
            <mxPoint x="158.63" y="200.25" as="sourcePoint" />
            <mxPoint x="259.13" y="290" as="targetPoint" />
          </mxGeometry>
        </mxCell>
        <mxCell id="PhGJAT5VoefX_bClDmPp-41" value="" style="shape=link;html=1;entryX=0;entryY=0.5;entryDx=0;entryDy=0;" edge="1" parent="PhGJAT5VoefX_bClDmPp-1" target="PhGJAT5VoefX_bClDmPp-5">
          <mxGeometry width="100" relative="1" as="geometry">
            <mxPoint x="160" y="200" as="sourcePoint" />
            <mxPoint x="230" y="120" as="targetPoint" />
          </mxGeometry>
        </mxCell>
        <mxCell id="PhGJAT5VoefX_bClDmPp-42" value="" style="rounded=1;arcSize=10;dashed=1;strokeColor=#F59D56;fillColor=none;gradientColor=none;dashPattern=8 4;strokeWidth=2;" vertex="1" parent="PhGJAT5VoefX_bClDmPp-1">
          <mxGeometry x="200" y="26.25" width="570" height="413.75" as="geometry" />
        </mxCell>
      </root>
    </mxGraphModel>
  </diagram>
</mxfile>
